<svg width="64" height="64" viewBox="0 0 64 64" fill="none" xmlns="http://www.w3.org/2000/svg">
    <g clip-path="url(#clip0_1129_777)">
    <mask id="mask0_1129_777" style="mask-type:luminance" maskUnits="userSpaceOnUse" x="0" y="0" width="64" height="64">
    <path d="M64 0H0V64H64V0Z" fill="white"/>
    </mask>
    <g mask="url(#mask0_1129_777)">
    <path d="M17.2828 59.6309C16.5047 56.4754 18.6599 54.1439 19.8456 53.3733L14.9044 56.2218C14.2356 58.6032 15.0747 59.57 15.9432 59.82L18.2382 60.5319C17.627 60.2874 17.4458 59.9569 17.2828 59.6309Z" fill="#FBDBD0"/>
    <path d="M43.7828 26.9933L46.7913 4.39185L10.712 25.2237L12.0767 45.3001L43.7828 26.9933Z" fill="#C1DBF6"/>
    <path d="M43.7828 26.9932V28.1524L44.6334 27.6613L44.7731 26.6117L43.7828 26.9932ZM46.7913 4.39174L47.7816 4.01029L47.9762 2.54834L46.7913 3.23247V4.39174ZM6.64177 19.4597L5.63784 20.0394L5.63776 22.3579L6.6417 21.7783L6.64177 19.4597ZM10.2571 18.5315L11.2582 17.8661L11.1881 16.8347L10.2571 17.3722V18.5315ZM12.6636 54.2342L11.6623 54.8969L11.7303 55.9323L12.6635 55.3935L12.6636 54.2342ZM40.771 39.1645L41.7749 38.5848L41.775 36.2663L40.771 36.8459V39.1645ZM44.7731 26.6117L47.7816 4.01029L45.801 4.77318L42.7925 27.3746L44.7731 26.6117ZM6.6417 21.7783L10.2571 19.6908V17.3722L6.64177 19.4597L6.6417 21.7783ZM9.25603 19.1969L9.71093 25.889L11.7131 24.5583L11.2582 17.8661L9.25603 19.1969ZM46.7913 3.23247L10.712 24.0644V26.3829L46.7912 5.551L46.7913 3.23247ZM9.71093 25.889L11.0756 45.9654L13.0778 44.6347L11.7131 24.5583L9.71093 25.889ZM11.0754 45.9627L11.6623 54.8969L13.6648 53.5716L13.078 44.6374L11.0754 45.9627ZM43.7828 25.8339L12.0767 44.1408V46.4593L43.7828 28.1524V25.8339ZM12.6635 55.3935L40.771 39.1645V36.8459L12.6636 53.075L12.6635 55.3935Z" fill="#FBDBD0"/>
    <path d="M17.6825 59.4502C19.3457 58.4899 20.694 56.1545 20.6941 54.2339C20.6941 52.3134 19.3459 51.535 17.6827 52.4953C16.0195 53.4556 14.6712 55.791 14.6711 57.7116C14.671 59.6321 16.0193 60.4105 17.6825 59.4502Z" fill="#FBDBD0"/>
    <path d="M35.7514 49.0168C37.4147 48.0565 38.763 45.7211 38.7631 43.8006C38.7631 41.88 37.4149 41.1016 35.7517 42.062C34.0885 43.0223 32.7401 45.3577 32.7401 47.2782C32.74 49.1988 34.0882 49.9772 35.7514 49.0168Z" fill="#FBDBD0"/>
    <path d="M13.9006 22.222L47.9719 2.55103L50.381 3.27556L14.0335 24.2718L13.9006 22.222Z" fill="#FBDBD0"/>
    <path d="M15.8567 51.2316L41.768 36.2744L44.1779 37.0037L15.9964 53.2636L15.8567 51.2316Z" fill="#FBDBD0"/>
    <path d="M5.63165 20.0442L11.1648 16.843L13.5917 17.5674L8.02692 20.7777L5.63165 20.0442Z" fill="#FBDBD0"/>
    <path d="M5.63617 22.3626V20.0493L8.04003 20.7872V23.0914L5.63617 22.3626Z" fill="#FBDBD0"/>
    <path d="M9.44904 22.2724L11.7209 20.9604L14.1224 56.6694L11.7314 55.9178L9.44904 22.2724Z" fill="#FBDBD0"/>
    <path d="M17.2828 59.6311C16.5047 56.4756 23.1649 53.3596 22.1196 51.9424L14.9044 56.222C14.2356 58.6034 15.0747 59.5702 15.9432 59.8202L18.2382 60.5321C17.627 60.2876 17.4458 59.9571 17.2828 59.6311Z" fill="#FBDBD0"/>
    <path d="M35.1788 48.6369C34.9019 45.6343 36.8837 43.5937 37.9093 42.9487L32.9854 45.7825C32.2969 48.1361 33.1959 49.1395 33.8686 49.3485L36.3174 50.0995C35.5777 49.8628 35.2824 49.177 35.1788 48.6369Z" fill="#FBDBD0"/>
    <path d="M46.1806 27.7308L49.1891 5.12939L13.1098 25.9613L14.4745 46.0377L46.1806 27.7308Z" fill="#C1DBF6"/>
    <path d="M46.1806 27.7307V28.89L47.0312 28.3988L47.1709 27.3493L46.1806 27.7307ZM49.1891 5.12929L50.1794 4.74784L50.374 3.28589L49.1891 3.97002V5.12929ZM9.03959 20.1973L8.03565 20.7769L8.03558 23.0955L9.03951 22.5158L9.03959 20.1973ZM12.6549 19.2691L13.656 18.6037L13.5859 17.5723L12.655 18.1098L12.6549 19.2691ZM15.0614 54.9718L14.0601 55.6344L14.1281 56.6699L15.0614 56.131V54.9718ZM43.1688 39.902L44.1727 39.3223L44.1728 37.0038L43.1689 37.5835L43.1688 39.902ZM47.1709 27.3493L50.1794 4.74784L48.1988 5.51073L45.1903 28.1121L47.1709 27.3493ZM9.03951 22.5158L12.6549 20.4283L12.655 18.1098L9.03959 20.1973L9.03951 22.5158ZM11.6539 19.9344L12.1088 26.6265L14.1109 25.2958L13.656 18.6037L11.6539 19.9344ZM49.1891 3.97002L13.1099 24.8019L13.1098 27.1204L49.1891 6.28855V3.97002ZM12.1088 26.6265L13.4734 46.7029L15.4756 45.3722L14.1109 25.2958L12.1088 26.6265ZM13.4733 46.7002L14.0601 55.6344L16.0627 54.3091L15.4758 45.3749L13.4733 46.7002ZM46.1807 26.5714L14.4746 44.8783L14.4745 47.1968L46.1806 28.89L46.1807 26.5714ZM15.0614 56.131L43.1688 39.902L43.1689 37.5835L15.0614 53.8125V56.131Z" fill="white"/>
    <path d="M20.0802 60.1875C21.7435 59.2272 23.0918 56.8918 23.0919 54.9712C23.0919 53.0507 21.7437 52.2723 20.0805 53.2326C18.4173 54.1929 17.0689 56.5283 17.0689 58.4489C17.0688 60.3694 18.417 61.1478 20.0802 60.1875Z" fill="white"/>
    <path d="M38.1492 49.7549C39.8124 48.7946 41.1607 46.4592 41.1608 44.5386C41.1608 42.6181 39.8126 41.8397 38.1494 42.8C36.4862 43.7603 35.1378 46.0957 35.1378 48.0163C35.1377 49.9368 36.486 50.7152 38.1492 49.7549Z" fill="white"/>
    <path d="M45.4909 55.8302C52.6025 51.724 58.3678 41.7382 58.368 33.5263C58.3683 25.3143 52.6034 21.986 45.4918 26.0922C38.3802 30.1984 32.6149 40.1842 32.6146 48.3961C32.6144 56.608 38.3793 59.9364 45.4909 55.8302Z" fill="white"/>
    <path d="M38.7595 45.5838L42.514 47.7514C42.8194 47.9278 42.9721 48.0159 43.1482 47.9803C43.3031 47.949 43.4699 47.8527 43.6248 47.7051C43.8009 47.5374 43.9536 47.2729 44.259 46.7439L52.6411 32.2256" stroke="#C1DBF6" stroke-width="1.98272" stroke-linecap="round" stroke-linejoin="round"/>
    <path d="M43.2547 54.7364C50.3663 50.6302 56.1316 40.6444 56.1319 32.4325C56.1321 24.2206 50.3673 20.8922 43.2557 24.9984C36.1441 29.1046 30.3788 39.0904 30.3785 47.3024C30.3782 55.5143 36.1431 58.8426 43.2547 54.7364Z" fill="#FBDBD0"/>
    <path d="M31.8429 53.3451C32.9024 55.3546 35.9658 56.8394 37.7831 57.3248C34.4718 56.4403 33.2157 52.9521 32.9024 51.3815C31.7364 45.5366 34.2985 39.4395 35.9469 36.4749C39.7137 29.7003 43.8333 27.0602 46.2159 25.7117C51.4673 23.0755 53.8475 24.9112 55.1322 25.5331C53.5029 24.444 51.9821 23.8406 51.1739 23.5597C43.8401 21.4245 36.3846 30.219 33.646 35.5145C28.7292 45.02 30.4238 51.1927 31.8429 53.3451Z" fill="#FBDBD0"/>
    <path d="M45.4909 55.8302C52.6025 51.724 58.3678 41.7382 58.368 33.5263C58.3683 25.3143 52.6034 21.986 45.4918 26.0922C38.3802 30.1984 32.6149 40.1842 32.6146 48.3961C32.6144 56.608 38.3793 59.9364 45.4909 55.8302Z" fill="white"/>
    <mask id="mask1_1129_777" style="mask-type:luminance" maskUnits="userSpaceOnUse" x="36" y="25" width="19" height="33">
    <path d="M54.8671 25.4134L36.4435 36.051L36.4428 57.3251L54.8664 46.6875L54.8671 25.4134Z" fill="white"/>
    </mask>
    <g mask="url(#mask1_1129_777)">
    <path d="M45.6553 36.0505L45.6551 41.3691L48.7256 41.369M53.3316 36.9367C53.3314 41.8323 49.8944 47.7854 45.6548 50.2333C41.4152 52.6812 37.9784 50.697 37.9786 45.8014C37.9788 40.9058 41.4158 34.9528 45.6554 32.5049C49.895 30.0569 53.3317 32.0412 53.3316 36.9367Z" stroke="#374874" stroke-width="2" stroke-linecap="round" stroke-linejoin="round"/>
    </g>
    <path d="M8.61177 23.221L9.09839 22.9409L11.2825 55.2628C11.3214 55.8393 11.7105 56.3326 12.2621 56.5048L13.5926 56.9202C13.833 56.9952 14.0866 57.0033 14.3272 56.9473C14.275 57.2663 14.2462 57.6145 14.2644 57.9636C14.3012 58.6689 14.5362 59.4422 15.2355 59.9353L15.2691 59.959L15.3067 59.9753C15.9353 60.2483 17.3711 60.7163 18.322 60.9387L18.3415 60.9433L18.3614 60.9459C19.6466 61.1131 22.0495 60.1901 23.346 56.1816L23.3496 56.1704L23.3526 56.1591C23.456 55.7611 23.5338 55.1268 23.4382 54.4813C23.3425 53.8351 23.0634 53.125 22.401 52.6674L22.373 52.648L22.3421 52.6337C22.2709 52.6006 22.1899 52.5661 22.0988 52.5346L29.98 47.9801C30.0155 48.8695 30.1255 49.949 30.4661 51.1647C30.9361 52.7121 31.7926 54.3862 33.2997 55.5724C34.1761 56.2622 35.8327 57.127 37.3153 57.59C39.7569 58.3526 45.4511 58.1774 51.907 50.7678C53.5201 48.9164 55.787 45.427 57.2658 41.3735C58.743 37.3245 59.4322 32.6699 57.846 28.4872L57.8422 28.4771L57.8378 28.4672C57.2576 27.1558 55.7927 25.2031 52.9741 23.8587C52.4723 23.6193 51.6312 23.3047 50.6783 23.0886C49.8953 22.911 49.0099 22.8166 48.168 22.875L50.6503 4.17823C50.7402 3.50123 50.3284 2.85821 49.676 2.65652L48.5052 2.29463C48.1328 2.17951 47.7293 2.22486 47.3918 2.41976L14.2484 21.5558L14.028 18.2339C13.9895 17.6532 13.5958 17.157 13.0392 16.9873L11.7055 16.581C11.3341 16.4678 10.9325 16.5139 10.5965 16.7083L5.94082 19.4011C5.50819 19.6513 5.24176 20.1132 5.24176 20.6129V21.6199C5.24176 22.2357 5.64422 22.7793 6.23327 22.959L7.50472 23.3468C7.87525 23.4599 8.27605 23.4143 8.61177 23.221Z" stroke="#374874" stroke-width="0.8"/>
    </g>
    </g>
    <defs>
    <clipPath id="clip0_1129_777">
    <rect width="64" height="64" fill="white"/>
    </clipPath>
    </defs>
    </svg>