<svg width="64" height="64" viewBox="0 0 64 64" fill="none" xmlns="http://www.w3.org/2000/svg">
    <path d="M4.06683 60.0685L4.06783 28.7646L48.6049 3.04907L48.6039 34.3531L4.06683 60.0685Z" fill="#FBDBD0"/>
    <path d="M13.7495 37.3361C15.5321 36.3069 16.9772 33.8039 16.9772 31.7455C16.9773 29.6871 15.5323 28.8528 13.7497 29.8821C11.9672 30.9113 10.522 33.4143 10.522 35.4727C10.5219 37.5311 11.9669 38.3654 13.7495 37.3361Z" fill="#374874" stroke="#374874" stroke-width="1.11811" stroke-linecap="round" stroke-linejoin="round"/>
    <path d="M7.93964 51.1238L13.7488 47.7696L19.558 44.4155V43.6073C19.5478 42.477 19.2883 41.5122 18.8039 40.803C18.3194 40.0937 17.6258 39.6632 16.7878 39.5515C15.9498 39.4399 14.9947 39.6508 14.0118 40.1646C13.9242 40.2104 13.8366 40.2585 13.7491 40.3088C13.6616 40.3595 13.574 40.4126 13.4863 40.468C12.5034 41.0893 11.5483 41.9812 10.7103 43.0606C9.87222 44.14 9.17854 45.3716 8.69403 46.6403C8.20952 47.9091 7.94998 49.1735 7.93967 50.3157L7.93964 51.1238Z" fill="#374874" stroke="#374874" stroke-width="1.11811" stroke-linecap="round" stroke-linejoin="round"/>
    <path d="M44.7318 13.111L23.4314 25.4097L23.4313 27.6457L44.7317 15.347L44.7318 13.111Z" fill="#C1DBF6"/>
    <path d="M41.8272 19.26L23.4314 29.8816L23.4313 32.1176L41.8271 21.496L41.8272 19.26Z" fill="#C1DBF6"/>
    <path d="M40.8587 25.4089L23.4311 35.4714L23.4309 42.1794L40.8585 32.1169L40.8587 25.4089Z" fill="#374874"/>
    <path d="M4.07611 28.7601L48.601 3.04883L51.2652 3.93113L6.73312 29.6458L4.07611 28.7601Z" fill="#FBDBD0"/>
    <path d="M4.06781 28.7532L6.72482 29.6388V60.9497L4.06781 60.064V28.7532Z" fill="#FBDBD0"/>
    <path d="M6.72479 60.955L6.72579 29.6511L51.2629 3.93555L51.2619 35.2396L6.72479 60.955Z" fill="white"/>
    <path d="M16.4074 38.2223C18.19 37.193 19.6351 34.69 19.6351 32.6316C19.6352 30.5733 18.1902 29.739 16.4076 30.7682C14.6251 31.7975 13.1799 34.3005 13.1799 36.3589C13.1798 38.4172 14.6248 39.2515 16.4074 38.2223Z" fill="#374874" stroke="#374874" stroke-width="1.11811" stroke-linecap="round" stroke-linejoin="round"/>
    <path d="M10.5975 52.0103L16.4067 48.6561L22.2159 45.3019V44.4938C22.2057 43.3635 21.9462 42.3987 21.4618 41.6894C20.9773 40.9802 20.2837 40.5496 19.4457 40.438C18.6077 40.3264 17.6526 40.5373 16.6697 41.0511C16.5821 41.0969 16.4945 41.145 16.407 41.1953C16.3195 41.246 16.2319 41.2991 16.1442 41.3545C15.1613 41.9757 14.2062 42.8677 13.3682 43.9471C12.5301 45.0265 11.8364 46.2581 11.3519 47.5268C10.8674 48.7955 10.6079 50.06 10.5976 51.2021L10.5975 52.0103Z" fill="#374874" stroke="#374874" stroke-width="1.11811" stroke-linecap="round" stroke-linejoin="round"/>
    <path d="M47.3898 13.9977L26.0894 26.2964L26.0893 28.5324L47.3897 16.2337L47.3898 13.9977Z" fill="#C1DBF6"/>
    <path d="M44.4852 20.1465L26.0894 30.7681L26.0893 33.0041L44.4851 22.3825L44.4852 20.1465Z" fill="#C1DBF6"/>
    <path d="M43.5167 26.2956L26.0891 36.3582L26.0889 43.0662L43.5165 33.0036L43.5167 26.2956Z" fill="#374874"/>
    <path d="M48.843 50.4533C54.9675 46.917 59.9326 38.3172 59.9328 31.2451C59.933 24.173 54.9683 21.3066 48.8438 24.8429C42.7193 28.3791 37.7542 36.9789 37.754 44.051C37.7538 51.1232 42.7185 53.9895 48.843 50.4533Z" fill="white"/>
    <path d="M43.0459 41.6291L46.2793 43.4959C46.5423 43.6477 46.6738 43.7236 46.8255 43.693C46.9589 43.666 47.1026 43.583 47.2359 43.456C47.3876 43.3115 47.5191 43.0837 47.7821 42.6281L55.0008 30.125" stroke="#C1DBF6" stroke-width="1.58423" stroke-linecap="round" stroke-linejoin="round"/>
    <path d="M46.9174 49.5114C53.0419 45.9751 58.007 37.3754 58.0072 30.3032C58.0074 23.2311 53.0427 20.3647 46.9182 23.901C40.7937 27.4373 35.8286 36.037 35.8284 43.1092C35.8282 50.1813 40.7929 53.0477 46.9174 49.5114Z" fill="#FBDBD0"/>
    <path d="M37.0894 48.3131C38.0019 50.0437 40.6401 51.3224 42.2051 51.7405C39.3534 50.9786 38.2717 47.9746 38.0019 46.622C36.9977 41.5884 39.2042 36.3376 40.6238 33.7845C43.8677 27.9502 47.4155 25.6765 49.4674 24.5152C53.99 22.2449 56.0398 23.8259 57.1462 24.3614C55.743 23.4235 54.4333 22.9038 53.7372 22.6619C47.4214 20.8231 41.0007 28.3969 38.6422 32.9574C34.4079 41.1436 35.8673 46.4595 37.0894 48.3131Z" fill="#FBDBD0"/>
    <path d="M48.843 50.4533C54.9675 46.917 59.9326 38.3172 59.9328 31.2451C59.933 24.173 54.9683 21.3066 48.8438 24.8429C42.7193 28.3791 37.7542 36.9789 37.754 44.051C37.7538 51.1232 42.7185 53.9895 48.843 50.4533Z" fill="white"/>
    <path d="M48.8607 28.5486L50.6102 33.7566L56.2724 30.4873L51.6915 36.9753L53.441 42.1833L48.8603 40.9851L44.2794 47.4731L46.0293 40.2446L41.4486 39.0465L47.1108 35.7771L48.8607 28.5486Z" fill="#374874"/>
    <path d="M49.1614 2.80994L50.7106 3.33128C51.2803 3.523 51.6641 4.05703 51.6641 4.65816V21.9922C52.9893 21.9908 54.1238 22.3334 54.8339 22.6584C56.2166 23.2517 57.2107 23.8661 57.9531 24.5615C58.7006 25.2617 59.1757 26.0279 59.5411 26.8979L59.5464 26.9106L59.5508 26.9236C60.8553 30.7442 60.2784 34.6496 59.0685 37.9898C57.8583 41.3307 56.0026 44.1416 54.6942 45.8041L54.6878 45.812C51.639 49.4881 48.8451 51.1937 46.513 51.8729C44.1784 52.5529 42.3468 52.1926 41.2465 51.8095C36.9088 50.2993 35.7855 46.8832 35.5312 44.7812L7.31409 61.0758M49.1614 2.80994L49.0341 3.18832M49.1614 2.80994C48.7805 2.68176 48.3629 2.72345 48.0149 2.92439L4.86681 27.8361C4.12425 28.2648 3.66681 29.0571 3.66681 29.9146V59.3428C3.66681 59.944 4.0506 60.478 4.62037 60.6697L6.16757 61.1903C6.54846 61.3185 6.96606 61.2768 7.31409 61.0758M7.31409 61.0758L7.11407 60.7294" stroke="#374874" stroke-width="0.8"/>
    </svg>